<svg xmlns="http://www.w3.org/2000/svg" viewBox="0 0 700 700">
  <path d="M113.85,0V700H306.67V544.44h87.64V700H587.13V0Zm52.59,46.67h87.65v77.78H166.44Zm140.24,0h87.64v77.78H306.68Zm140.23,0h87.64v77.78H446.91ZM166.45,171.12h87.64v77.77H166.45Zm140.23,0h87.64v77.77H306.68Zm140.23,0h87.65v77.77H446.91ZM166.46,295.56H254.1v77.78H166.46Zm140.23,0h87.64v77.78H306.69Zm140.23,0h87.64v77.78H446.92ZM166.46,420H254.1v77.78H166.46Zm140.23,0h87.65v77.78H306.69Zm140.24,0h87.64v77.78H446.93Z" transform="translate(-113.85)"/>
</svg>